<svg xmlns="http://www.w3.org/2000/svg" xmlns:xlink="http://www.w3.org/1999/xlink" viewBox="0 0 448.32 453.56"><defs><style>.cls-1,.cls-10,.cls-11,.cls-14,.cls-18,.cls-20,.cls-21,.cls-23,.cls-24,.cls-27,.cls-8{fill:none;}.cls-2{isolation:isolate;}.cls-3{fill:#ffefe3;}.cls-4{fill:#fff;}.cls-5{fill:#e6e6e6;mix-blend-mode:multiply;}.cls-19,.cls-6{fill:#222d40;}.cls-7{fill:#55b563;}.cls-10,.cls-8{stroke:#222d40;}.cls-10,.cls-11,.cls-14,.cls-18,.cls-20,.cls-21,.cls-23,.cls-24,.cls-27,.cls-8{stroke-miterlimit:10;}.cls-9{fill:#9bc8d1;}.cls-10,.cls-11,.cls-14,.cls-20,.cls-21,.cls-23,.cls-24,.cls-27{stroke-width:0.5px;}.cls-11{stroke:#fff;}.cls-12{fill:#eb7d34;}.cls-13{fill:#ad4d26;}.cls-14{stroke:#55b563;}.cls-15{fill:#ffbc82;}.cls-16{fill:#de9066;}.cls-17{clip-path:url(#clip-path);}.cls-18,.cls-24{stroke:#eb7d34;}.cls-18{stroke-width:2px;}.cls-19{opacity:0.43;}.cls-20{stroke:#1b2333;}.cls-21{stroke:#3c4f70;}.cls-22{clip-path:url(#clip-path-2);}.cls-23{stroke:#9bc8d1;}.cls-25{fill:#3897a6;}.cls-26{fill:#fabebe;}.cls-27{stroke:#18202e;}.cls-28{fill:#ebdace;}.cls-29{fill:#18202e;}</style><clipPath id="clip-path" transform="translate(-30.59 -26.02)"><path class="cls-1" d="M263.94,208.68c-.78-1.78-4-8.9-4.05-8.91s-1.91-14.07-7.41-16.31c0,0,5.3,6.9-1.72,8.17-10.43.3-22.08-11-22.08-11-5.68,1.48-10.27,10.48-10.83,12.25-6.25,19.65,1.89,25.91,4.29,38.1,0,0,1.64,18.23-1.7,28.25-.24.72,25.14,18.87,39.79,9.33,4.13-2.69,5.23-9.31,5.23-9.31-2.68-12.64-2.36-19,.08-27.36C270.07,216.49,267.27,216.33,263.94,208.68Z"/></clipPath><clipPath id="clip-path-2" transform="translate(-30.59 -26.02)"><path class="cls-1" d="M233.3,186.62c8.68,6.45,19.89,12.26,30.64,25.95,0,0-6.63,10.8-14.07,13.15L222.7,209.34a12.61,12.61,0,0,1-5.53-14.54h0C219.28,188,227.59,182.38,233.3,186.62Z"/></clipPath></defs><g class="cls-2"><g id="BACKGROUND"><path class="cls-3" d="M189.09,183.28c.09,10.22.75,89.74,57.69,120.09,66.13,35.26,144.56-29.7,151.7-35.78,38.53-32.84,92.24-107.87,58.75-175-32-64.19-124.8-83.51-189.18-51C189.84,81,189.06,179,189.09,183.28Z" transform="translate(-30.59 -26.02)"/><rect class="cls-4" x="263.95" y="76.73" width="46.53" height="68.76"/><rect class="cls-4" x="332.43" y="48.52" width="46.53" height="68.76"/></g><g id="OBJECTS"><path class="cls-5" d="M159.73,443c0,2.9-9.41,5.25-21,5.25s-21-2.35-21-5.25,9.41-5.25,21-5.25S159.73,440.11,159.73,443Z" transform="translate(-30.59 -26.02)"/><path class="cls-6" d="M136.54,366.21S147.06,347.79,157,343.9" transform="translate(-30.59 -26.02)"/><path class="cls-7" d="M136.54,366.21a42.23,42.23,0,0,1,3.51-6.9,53.61,53.61,0,0,1,4.52-6.3c.83-1,1.73-1.94,2.62-2.89s1.88-1.81,2.93-2.6A18,18,0,0,1,157,343.9a33.21,33.21,0,0,0-5.85,4.79,74.61,74.61,0,0,0-5,5.6C142.84,358.14,139.83,362.22,136.54,366.21Z" transform="translate(-30.59 -26.02)"/><path class="cls-6" d="M140.5,351.56s14.73-22.73,35.08-29.75" transform="translate(-30.59 -26.02)"/><path class="cls-7" d="M140.5,351.56a61.19,61.19,0,0,1,6.57-9.72,77.18,77.18,0,0,1,8.12-8.55,62.81,62.81,0,0,1,9.52-7,42.09,42.09,0,0,1,10.87-4.49,81.36,81.36,0,0,0-10,5.81c-.8.54-1.55,1.15-2.34,1.7l-1.16.84-1.12.92c-.74.61-1.52,1.17-2.24,1.81l-2.17,1.9c-2.87,2.56-5.61,5.27-8.28,8.07S143,348.57,140.5,351.56Z" transform="translate(-30.59 -26.02)"/><path class="cls-6" d="M146.16,335.64s15.28-22.64,37.61-29.06" transform="translate(-30.59 -26.02)"/><path class="cls-7" d="M146.16,335.64a59.73,59.73,0,0,1,7.12-9.85,74,74,0,0,1,8.78-8.47,60.32,60.32,0,0,1,10.23-6.71,44.18,44.18,0,0,1,11.48-4,83.32,83.32,0,0,0-10.72,5.4,12.8,12.8,0,0,0-1.27.79l-1.25.82c-.83.54-1.67,1.07-2.46,1.68L165.65,317l-2.33,1.86c-3.1,2.5-6,5.19-8.91,8S148.82,332.59,146.16,335.64Z" transform="translate(-30.59 -26.02)"/><path class="cls-6" d="M150.73,321.14s15.27-22.65,37.61-29.06" transform="translate(-30.59 -26.02)"/><path class="cls-7" d="M150.73,321.14a59.32,59.32,0,0,1,7.12-9.85,73.22,73.22,0,0,1,8.78-8.47,59.64,59.64,0,0,1,10.22-6.71,43.52,43.52,0,0,1,11.49-4,82.13,82.13,0,0,0-10.73,5.39,14,14,0,0,0-1.26.8l-1.25.81c-.83.54-1.68,1.07-2.46,1.68l-2.42,1.75-2.33,1.86c-3.1,2.5-6,5.19-8.91,8S153.39,318.09,150.73,321.14Z" transform="translate(-30.59 -26.02)"/><path class="cls-6" d="M157.15,305.72s15.27-22.64,37.61-29.06" transform="translate(-30.59 -26.02)"/><path class="cls-7" d="M157.15,305.72a59.16,59.16,0,0,1,7.12-9.85,74,74,0,0,1,8.78-8.47,59.59,59.59,0,0,1,10.22-6.7,43.91,43.91,0,0,1,11.49-4,82.8,82.8,0,0,0-10.73,5.4,13.92,13.92,0,0,0-1.26.79l-1.25.82c-.84.54-1.68,1.07-2.46,1.68l-2.42,1.74L174.3,289c-3.09,2.5-6,5.19-8.9,8S159.81,302.67,157.15,305.72Z" transform="translate(-30.59 -26.02)"/><path class="cls-6" d="M164,290.85s17.47-22.42,35.23-26.7" transform="translate(-30.59 -26.02)"/><path class="cls-7" d="M164,290.85A65.38,65.38,0,0,1,171,282a77.43,77.43,0,0,1,8.19-7.8,58.09,58.09,0,0,1,9.41-6.34,33.78,33.78,0,0,1,10.7-3.66,57.19,57.19,0,0,0-9.91,5c-.77.51-1.54,1-2.31,1.52s-1.5,1.08-2.25,1.62-1.49,1.08-2.21,1.66-1.47,1.12-2.17,1.73l-2.14,1.77-2.09,1.83c-1.39,1.22-2.76,2.49-4.12,3.75Q168,286.86,164,290.85Z" transform="translate(-30.59 -26.02)"/><path class="cls-6" d="M174.39,274.48s17.18-17.14,31.09-20.16" transform="translate(-30.59 -26.02)"/><path class="cls-7" d="M174.39,274.48a58.2,58.2,0,0,1,6.47-6.85,72,72,0,0,1,7.36-5.9,53.45,53.45,0,0,1,8.19-4.76,28.75,28.75,0,0,1,9.07-2.65,57.45,57.45,0,0,0-8.35,4c-.66.4-1.32.79-2,1.17l-1.94,1.25c-1.3.84-2.58,1.69-3.84,2.59-2.55,1.73-5,3.61-7.5,5.46Z" transform="translate(-30.59 -26.02)"/><path class="cls-6" d="M136.49,370s-3.56-12.85-4.74-19.4" transform="translate(-30.59 -26.02)"/><path class="cls-7" d="M136.49,370a30.55,30.55,0,0,1-2.05-4.62,48,48,0,0,1-1.46-4.79,45.65,45.65,0,0,1-1-4.93,25,25,0,0,1-.27-5.06,43.64,43.64,0,0,1,1.79,4.71c.51,1.59,1,3.18,1.38,4.79s.74,3.24,1,4.88A36.19,36.19,0,0,1,136.49,370Z" transform="translate(-30.59 -26.02)"/><path class="cls-6" d="M139.15,356.61s-16.29-29.48-15.69-44.6" transform="translate(-30.59 -26.02)"/><path class="cls-7" d="M139.15,356.61a96.93,96.93,0,0,1-6.06-10.31c-1.85-3.54-3.48-7.19-5-10.9-.73-1.86-1.4-3.75-2-5.64-.31-.95-.57-1.92-.86-2.88-.13-.49-.29-1-.41-1.45l-.34-1.47a33.7,33.7,0,0,1-1-11.95A53,53,0,0,0,126,323.55q1.78,5.63,4,11.12C132.85,342,136.09,349.24,139.15,356.61Z" transform="translate(-30.59 -26.02)"/><path class="cls-6" d="M140.63,347.29s-9.77-26-8.59-42.83" transform="translate(-30.59 -26.02)"/><path class="cls-7" d="M140.59,347.3c-.82-1.65-1.49-3.36-2.19-5.06s-1.28-3.45-1.87-5.19-1.09-3.51-1.6-5.28-1-3.55-1.38-5.35-.73-3.61-1-5.43l-.43-2.73c-.12-.92-.21-1.84-.29-2.76s-.11-1.84-.17-2.76-.1-1.85-.07-2.77a46.14,46.14,0,0,1,.43-5.52h.1a62.62,62.62,0,0,0,.48,11c.44,3.63,1.16,7.22,2,10.79s1.74,7.11,2.76,10.63,2.15,7,3.4,10.44Z" transform="translate(-30.59 -26.02)"/><path class="cls-6" d="M144.78,337.71s-11-31.49-9.48-44.09" transform="translate(-30.59 -26.02)"/><path class="cls-7" d="M144.73,337.73c-.8-1.72-1.46-3.5-2.17-5.26s-1.27-3.56-1.89-5.35c-1.21-3.59-2.21-7.25-3.2-10.92-.43-1.84-.84-3.7-1.2-5.56-.2-.93-.36-1.87-.53-2.8s-.33-1.88-.42-2.83-.22-1.89-.3-2.84l-.18-2.85c0-1,0-1.92.06-2.87s.22-1.9.35-2.83h.1a44.37,44.37,0,0,0,.74,11.26q.94,5.58,2.35,11.07c1.82,7.33,4,14.58,6.38,21.74Z" transform="translate(-30.59 -26.02)"/><path class="cls-6" d="M148,325.62s-11.25-30.23-7.4-46.36" transform="translate(-30.59 -26.02)"/><path class="cls-7" d="M148,325.64c-.86-1.8-1.56-3.65-2.3-5.5s-1.32-3.74-1.93-5.63a116.33,116.33,0,0,1-3-11.54,78.59,78.59,0,0,1-1.46-11.86l-.05-1.5,0-1.5.05-1.5a10.66,10.66,0,0,1,.1-1.49c.15-1,.24-2,.42-3s.48-1.95.73-2.9l.1,0a41.63,41.63,0,0,0-.61,11.79,89.14,89.14,0,0,0,1.67,11.72c.75,3.88,1.69,7.72,2.77,11.52s2.23,7.58,3.57,11.3Z" transform="translate(-30.59 -26.02)"/><path class="cls-6" d="M151.88,314s-9.47-31.49-5-46.36" transform="translate(-30.59 -26.02)"/><path class="cls-7" d="M151.84,314c-.75-1.82-1.33-3.7-2-5.57s-1.09-3.79-1.6-5.69c-1-3.82-1.72-7.7-2.37-11.59a83.46,83.46,0,0,1-.91-11.83,53.66,53.66,0,0,1,.37-5.94c.19-1,.35-2,.55-2.92s.57-1.91.87-2.84l.1,0a38.71,38.71,0,0,0-1.11,11.65,91.73,91.73,0,0,0,1.12,11.7q.85,5.82,2.14,11.57c.85,3.83,1.79,7.64,2.88,11.41Z" transform="translate(-30.59 -26.02)"/><path class="cls-6" d="M156,306.47s-7.7-39.3-3.26-50.89" transform="translate(-30.59 -26.02)"/><path class="cls-7" d="M156,306.48c-.59-2.06-1-4.16-1.54-6.25s-.85-4.2-1.25-6.31c-.77-4.22-1.32-8.48-1.83-12.74a128.92,128.92,0,0,1-.65-12.89c.12-4.28.29-8.73,2-12.73l.09,0a24.3,24.3,0,0,0-1.18,6.27c-.17,2.13-.2,4.27-.16,6.41.09,4.27.43,8.54.87,12.79.88,8.51,2.16,17,3.73,25.39Z" transform="translate(-30.59 -26.02)"/><path class="cls-6" d="M158.7,297.65s-5-38.8,4.44-49.88" transform="translate(-30.59 -26.02)"/><path class="cls-7" d="M158.65,297.66c-.46-2.09-.74-4.2-1.07-6.31s-.48-4.23-.67-6.36c-.36-4.25-.45-8.52-.4-12.8a77.69,77.69,0,0,1,1.38-12.79,38.57,38.57,0,0,1,1.81-6.2,17.14,17.14,0,0,1,3.4-5.46l.08.06a17.77,17.77,0,0,0-3,5.58,38.31,38.31,0,0,0-1.55,6.16,85.36,85.36,0,0,0-1.14,12.67c-.12,4.25,0,8.5.18,12.74s.55,8.48,1.05,12.7Z" transform="translate(-30.59 -26.02)"/><path class="cls-6" d="M162,293.12s.6-39.81,8.59-48.88" transform="translate(-30.59 -26.02)"/><path class="cls-7" d="M161.9,293.12c-.15-2.1-.15-4.19-.2-6.29s.06-4.19.12-6.29c.15-4.19.54-8.37,1-12.55a105.28,105.28,0,0,1,2.32-12.4,51.26,51.26,0,0,1,2-6,17.54,17.54,0,0,1,3.35-5.36l.08.06a18.65,18.65,0,0,0-2.94,5.49,52.13,52.13,0,0,0-1.75,6,120.31,120.31,0,0,0-2.09,12.36c-1,8.29-1.58,16.64-1.8,25Z" transform="translate(-30.59 -26.02)"/><path class="cls-6" d="M167.58,284.05s2.66-33,9.77-40.82" transform="translate(-30.59 -26.02)"/><path class="cls-7" d="M167.53,284.05c0-1.78.06-3.55.11-5.32s.26-3.54.42-5.3c.33-3.53.89-7,1.49-10.54a89.08,89.08,0,0,1,2.65-10.34,45.28,45.28,0,0,1,2-5,16.32,16.32,0,0,1,3.08-4.39l.08.07a17.06,17.06,0,0,0-2.67,4.53,44,44,0,0,0-1.77,5,100.64,100.64,0,0,0-2.42,10.3c-1.32,6.93-2.25,13.94-2.9,21Z" transform="translate(-30.59 -26.02)"/><path class="cls-6" d="M172.32,277.75s6.81-26.71,12.43-32" transform="translate(-30.59 -26.02)"/><path class="cls-7" d="M172.27,277.74c.17-1.45.48-2.86.73-4.28s.64-2.82,1-4.23c.7-2.8,1.58-5.56,2.46-8.32s2-5.43,3.3-8.05c.68-1.29,1.34-2.58,2.14-3.82a14.86,14.86,0,0,1,2.85-3.32l.07.07a16.18,16.18,0,0,0-2.46,3.51c-.71,1.25-1.3,2.57-1.89,3.87-1.14,2.65-2.13,5.35-3.07,8.07-1.87,5.44-3.53,11-5,16.52Z" transform="translate(-30.59 -26.02)"/><path class="cls-8" d="M133.89,415.71c-.54-41.89,7.93-104.32,52.94-157.86" transform="translate(-30.59 -26.02)"/><path class="cls-6" d="M182.68,262.38c.89-1.26,21-22.67,22.8-24.18" transform="translate(-30.59 -26.02)"/><path class="cls-7" d="M182.68,262.38a48.57,48.57,0,0,1,4.73-6.95c1.73-2.18,3.55-4.27,5.45-6.29s3.88-4,6-5.82a46,46,0,0,1,6.66-5.12c-1.56,2.35-3.21,4.59-5,6.75s-3.58,4.23-5.48,6.24A94.81,94.81,0,0,1,182.68,262.38Z" transform="translate(-30.59 -26.02)"/><path class="cls-6" d="M134.58,344.92s-7.87-19.34-17.21-24.22" transform="translate(-30.59 -26.02)"/><path class="cls-7" d="M134.58,344.92c-2.69-4.3-5.11-8.65-7.81-12.81a71.39,71.39,0,0,0-4.24-6.06,30.33,30.33,0,0,0-5.16-5.35A17.12,17.12,0,0,1,123.7,325a34.89,34.89,0,0,1,2.55,2.89c.75,1,1.51,2.06,2.2,3.13a51.12,51.12,0,0,1,3.61,6.72A40.92,40.92,0,0,1,134.58,344.92Z" transform="translate(-30.59 -26.02)"/><path class="cls-6" d="M132.7,330S121.25,305.93,102,296.89" transform="translate(-30.59 -26.02)"/><path class="cls-7" d="M132.7,330q-3.1-4.85-6.46-9.43c-2.26-3.06-4.6-6-7.09-8.87l-1.89-2.1c-.63-.71-1.33-1.34-2-2l-1-1-1-.95c-.7-.63-1.36-1.31-2.08-1.92a77.29,77.29,0,0,0-9.15-6.77,40,40,0,0,1,10.13,5.56,58.91,58.91,0,0,1,8.49,7.91,72.72,72.72,0,0,1,6.88,9.32A58.72,58.72,0,0,1,132.7,330Z" transform="translate(-30.59 -26.02)"/><path class="cls-6" d="M129.31,313.6s-12-24-33.28-32.66" transform="translate(-30.59 -26.02)"/><path class="cls-7" d="M129.31,313.6c-2.21-3.3-4.54-6.48-7-9.57s-5-6-7.73-8.84l-2.06-2.09-2.16-2c-.7-.69-1.46-1.3-2.21-1.92l-1.13-.94a14.2,14.2,0,0,0-1.14-.91A78.29,78.29,0,0,0,96,280.94a41.8,41.8,0,0,1,10.79,5.15,56.78,56.78,0,0,1,9.23,7.71,69.51,69.51,0,0,1,7.55,9.31A56.42,56.42,0,0,1,129.31,313.6Z" transform="translate(-30.59 -26.02)"/><path class="cls-6" d="M126.8,298.74s-12-24-33.27-32.67" transform="translate(-30.59 -26.02)"/><path class="cls-7" d="M126.8,298.74c-2.21-3.31-4.53-6.49-7-9.58a114.09,114.09,0,0,0-7.73-8.83l-2.06-2.09-2.15-2c-.7-.69-1.46-1.29-2.22-1.91l-1.12-.94a12.41,12.41,0,0,0-1.15-.91,78.63,78.63,0,0,0-9.88-6.43,42.32,42.32,0,0,1,10.79,5.16,56.65,56.65,0,0,1,9.22,7.7,69.53,69.53,0,0,1,7.56,9.32A56.37,56.37,0,0,1,126.8,298.74Z" transform="translate(-30.59 -26.02)"/><path class="cls-6" d="M122.59,282.78s-12-24-33.28-32.66" transform="translate(-30.59 -26.02)"/><path class="cls-7" d="M122.59,282.78c-2.21-3.3-4.54-6.48-7-9.57s-5-6-7.73-8.84l-2.06-2.09-2.16-2c-.7-.69-1.46-1.3-2.21-1.92l-1.13-.94c-.36-.32-.75-.62-1.14-.91a78.29,78.29,0,0,0-9.89-6.42,41.8,41.8,0,0,1,10.79,5.15,56.78,56.78,0,0,1,9.23,7.71,69.51,69.51,0,0,1,7.55,9.31A57,57,0,0,1,122.59,282.78Z" transform="translate(-30.59 -26.02)"/><path class="cls-6" d="M117.84,267.32s-14.21-24-31.25-30.08" transform="translate(-30.59 -26.02)"/><path class="cls-7" d="M117.84,267.32q-3.41-4.38-6.89-8.59c-1.17-1.39-2.35-2.79-3.56-4.14l-1.82-2-1.88-2c-.61-.68-1.28-1.29-1.91-1.93s-1.29-1.28-2-1.88-1.31-1.25-2-1.83-1.4-1.16-2.08-1.75a55.6,55.6,0,0,0-9.14-5.95,32.11,32.11,0,0,1,10.06,4.7,55.48,55.48,0,0,1,8.48,7.26,74.25,74.25,0,0,1,7.06,8.59A63.91,63.91,0,0,1,117.84,267.32Z" transform="translate(-30.59 -26.02)"/><path class="cls-6" d="M109.84,250s-14.66-18.75-28-23.16" transform="translate(-30.59 -26.02)"/><path class="cls-7" d="M109.84,250l-6.62-6.38c-2.22-2.1-4.4-4.21-6.7-6.19-1.12-1-2.28-2-3.45-2.95l-1.75-1.44c-.61-.44-1.21-.9-1.81-1.37a56.29,56.29,0,0,0-7.72-4.83,27.54,27.54,0,0,1,8.59,3.54,50.76,50.76,0,0,1,7.47,5.55,68.72,68.72,0,0,1,6.49,6.62A54.86,54.86,0,0,1,109.84,250Z" transform="translate(-30.59 -26.02)"/><path class="cls-6" d="M134.11,348.66s5.33-12.4,7.42-18.78" transform="translate(-30.59 -26.02)"/><path class="cls-7" d="M134.11,348.66a34.79,34.79,0,0,1,1.24-5c.51-1.61,1.07-3.2,1.7-4.75s1.31-3.09,2-4.61a44.25,44.25,0,0,1,2.44-4.47,25.73,25.73,0,0,1-1,5,46.6,46.6,0,0,1-1.64,4.79q-.94,2.35-2.12,4.6A32.32,32.32,0,0,1,134.11,348.66Z" transform="translate(-30.59 -26.02)"/><path class="cls-6" d="M133.33,335.13s20.3-27.62,21.82-42.69" transform="translate(-30.59 -26.02)"/><path class="cls-7" d="M133.33,335.13c2-3.5,4.09-6.95,6.14-10.41s4.07-6.91,6-10.41,3.82-7,5.53-10.63a54.09,54.09,0,0,0,4.14-11.24c0,4.09-1.28,8.06-2.7,11.85l-.54,1.43-.62,1.39c-.42.92-.81,1.87-1.26,2.78-.9,1.81-1.82,3.62-2.81,5.39-2,3.52-4.12,7-6.44,10.28A99.74,99.74,0,0,1,133.33,335.13Z" transform="translate(-30.59 -26.02)"/><path class="cls-6" d="M133.17,325.72S146.5,301,147.69,284.07" transform="translate(-30.59 -26.02)"/><path class="cls-7" d="M133.12,325.7l2.12-5.13c.73-1.7,1.45-3.4,2.13-5.11,1.38-3.42,2.82-6.8,4-10.27s2.54-6.9,3.6-10.41c.3-.87.52-1.76.77-2.64s.5-1.77.69-2.67.48-1.78.64-2.68.33-1.81.53-2.72h.1a63.06,63.06,0,0,1-2,10.91c-.93,3.58-2.15,7.08-3.42,10.56s-2.75,6.87-4.26,10.24-3.14,6.7-4.87,10Z" transform="translate(-30.59 -26.02)"/><path class="cls-6" d="M130.39,315.8S145.68,285.64,146,273" transform="translate(-30.59 -26.02)"/><path class="cls-7" d="M130.35,315.78c.68-1.79,1.43-3.55,2.12-5.33l2.19-5.28c1.44-3.52,2.94-7,4.3-10.57s2.76-7.07,4-10.64c.31-.9.63-1.79.92-2.69l.8-2.73c.26-.91.47-1.83.71-2.75s.31-1.86.5-2.81h.1a45.67,45.67,0,0,1-2.28,11.21Q142,289.65,139.89,295q-4.3,10.62-9.46,20.85Z" transform="translate(-30.59 -26.02)"/><path class="cls-6" d="M128.85,303.46s15.4-28.88,13.84-45.28" transform="translate(-30.59 -26.02)"/><path class="cls-7" d="M128.8,303.44c.76-1.85,1.56-3.68,2.28-5.53s1.54-3.67,2.26-5.53c.34-.93.72-1.85,1.09-2.77l1.09-2.77c.68-1.86,1.38-3.71,2-5.59s1.28-3.75,1.9-5.63,1.07-3.8,1.55-5.71l.37-1.44c.11-.48.19-1,.29-1.45.16-1,.42-1.93.51-2.91s.29-2,.38-2.94.07-2,.13-3h.09a41.36,41.36,0,0,1-1,11.89,89.73,89.73,0,0,1-3.27,11.5c-1.31,3.77-2.79,7.48-4.4,11.12s-3.3,7.26-5.16,10.8Z" transform="translate(-30.59 -26.02)"/><path class="cls-6" d="M126.65,291.56s13.81-30.3,11.48-45.51" transform="translate(-30.59 -26.02)"/><path class="cls-7" d="M126.6,291.54l1.93-5.6c.66-1.86,1.31-3.72,1.92-5.6,1.26-3.73,2.51-7.45,3.56-11.24.6-1.87,1.1-3.76,1.62-5.65s.91-3.81,1.29-5.73a54.09,54.09,0,0,0,.93-5.79l.26-2.92c0-1,0-2,0-3h.1a39,39,0,0,1-.49,11.81A97.16,97.16,0,0,1,135,269.39q-1.69,5.67-3.79,11.23c-1.39,3.69-2.87,7.36-4.49,11Z" transform="translate(-30.59 -26.02)"/><path class="cls-6" d="M123.59,283.64s13.14-38.24,10.35-50.2" transform="translate(-30.59 -26.02)"/><path class="cls-7" d="M123.54,283.62l1.6-6.25c.57-2.08,1.13-4.15,1.66-6.23,1.09-4.15,2.23-8.29,3.2-12.46q.81-3.12,1.52-6.24c.47-2.09.86-4.19,1.3-6.28s.75-4.21,1-6.33a27.22,27.22,0,0,0,.11-6.38l.09,0a24.39,24.39,0,0,1,.32,6.44c-.13,2.15-.4,4.28-.72,6.41-.68,4.25-1.6,8.46-2.62,12.64-2.1,8.34-4.58,16.59-7.33,24.74Z" transform="translate(-30.59 -26.02)"/><path class="cls-6" d="M122.18,274.62s10.42-38,2.57-50" transform="translate(-30.59 -26.02)"/><path class="cls-7" d="M122.13,274.6c.36-2.1.78-4.18,1.11-6.28s.76-4.17,1.08-6.26c.68-4.18,1.37-8.35,1.79-12.55a96.55,96.55,0,0,0,.82-12.59,37.43,37.43,0,0,0-.43-6.26,18.25,18.25,0,0,0-1.8-6l.09,0a17.57,17.57,0,0,1,2.23,5.95,38.43,38.43,0,0,1,.69,6.34,87.2,87.2,0,0,1-.61,12.72c-.5,4.23-1.19,8.42-2,12.59s-1.77,8.31-2.87,12.42Z" transform="translate(-30.59 -26.02)"/><path class="cls-6" d="M119.58,269.78s5-39.58-1.69-49.4" transform="translate(-30.59 -26.02)"/><path class="cls-7" d="M119.53,269.78l.53-12.49c.16-4.15.37-8.3.38-12.44s.06-8.29-.16-12.41a52.61,52.61,0,0,0-.66-6.14,19.09,19.09,0,0,0-1.77-5.89l.08-.06a18,18,0,0,1,2.2,5.84,51.75,51.75,0,0,1,.92,6.18,118.35,118.35,0,0,1,.39,12.49c-.18,8.34-.83,16.65-1.81,24.93Z" transform="translate(-30.59 -26.02)"/><path class="cls-6" d="M115.26,260.21s2-33-4-41.52" transform="translate(-30.59 -26.02)"/><path class="cls-7" d="M115.21,260.2c-.1-1.76-.11-3.51-.2-5.27s-.08-3.5-.15-5.25c-.11-3.5-.16-7-.39-10.49q-.09-2.61-.27-5.22c-.13-1.74-.34-3.46-.5-5.19a46.63,46.63,0,0,0-.83-5.14,18.38,18.38,0,0,0-1.64-4.92l.08-.06a16.73,16.73,0,0,1,2.07,4.84,47.28,47.28,0,0,1,1.09,5.16,105.15,105.15,0,0,1,1,10.49c.3,7,.21,14-.16,21.06Z" transform="translate(-30.59 -26.02)"/><path class="cls-6" d="M111.44,253.47s-3-27.2-7.87-33" transform="translate(-30.59 -26.02)"/><path class="cls-7" d="M111.39,253.48c-.36-1.39-.62-2.79-1-4.18l-.84-4.19c-.57-2.78-1-5.58-1.65-8.35s-1.1-5.55-1.73-8.3c-.33-1.37-.66-2.75-1.1-4.08a18.58,18.58,0,0,0-1.59-3.9l.07-.07a16,16,0,0,1,2,3.78c.53,1.32.94,2.69,1.36,4.05.78,2.75,1.39,5.53,2,8.33,1.07,5.6,1.91,11.24,2.56,16.9Z" transform="translate(-30.59 -26.02)"/><path class="cls-8" d="M130.29,394.34C136.69,352.8,137,290,99.82,232.24" transform="translate(-30.59 -26.02)"/><path class="cls-6" d="M103.3,237.16c-.71-1.34-17.71-24.64-19.26-26.32" transform="translate(-30.59 -26.02)"/><path class="cls-7" d="M103.3,237.16a79.4,79.4,0,0,1-5.65-6c-1.76-2.07-3.44-4.21-5.05-6.4S89.47,220.34,88,218s-2.77-4.7-4-7.19a45.36,45.36,0,0,1,5.89,5.78c1.8,2.06,3.49,4.19,5.1,6.39s3.12,4.46,4.53,6.8A47.42,47.42,0,0,1,103.3,237.16Z" transform="translate(-30.59 -26.02)"/><polygon class="cls-9" points="126.11 416.36 93.04 416.36 86.68 337.48 132.48 337.48 126.11 416.36"/><line class="cls-10" x1="87.63" y1="347.23" x2="131.42" y2="347.23"/><line class="cls-11" x1="126.55" y1="366.92" x2="123.37" y2="409.1"/><line class="cls-11" x1="127.69" y1="351.86" x2="127.25" y2="357.59"/><ellipse class="cls-5" cx="356.18" cy="446.36" rx="66.06" ry="5.94"/><ellipse class="cls-9" cx="356.65" cy="234.38" rx="33.9" ry="3.69"/><ellipse class="cls-6" cx="356.65" cy="238.44" rx="29.96" ry="3.76"/><polygon class="cls-12" points="413.24 445.21 411.46 447.15 298.7 322.24 300.49 320.3 413.24 445.21"/><polygon class="cls-12" points="298.7 445.21 300.49 447.15 413.24 322.24 411.46 320.3 298.7 445.21"/><polygon class="cls-13" points="411.46 320.3 355.97 381.77 357.74 383.73 413.24 322.24 411.46 320.3"/><polygon class="cls-13" points="346.9 391.82 350.44 391.82 355.97 385.69 354.2 383.73 346.9 391.82"/><polygon class="cls-13" points="361.51 391.82 365.05 391.82 357.74 383.73 355.97 385.69 361.51 391.82"/><polygon class="cls-13" points="300.49 320.3 298.7 322.24 354.2 383.73 355.97 381.77 300.49 320.3"/><polygon class="cls-12" points="425.48 317.84 286.52 317.84 298.76 310.46 413.24 310.46 425.48 317.84"/><path class="cls-8" d="M413.05,177.76S397.63,243.58,407.12,285" transform="translate(-30.59 -26.02)"/><path class="cls-8" d="M386.34,134.74s18.29,41.52,2.19,150.52" transform="translate(-30.59 -26.02)"/><path class="cls-8" d="M372.89,182.92S362.42,237.8,369.75,283" transform="translate(-30.59 -26.02)"/><path class="cls-6" d="M371.81,192.73s8.3-30.24-18.91-45.8-48.41,4.59-48.41,4.59S345.52,159.35,371.81,192.73Z" transform="translate(-30.59 -26.02)"/><path class="cls-14" d="M371.81,192.73s1.27-8.06-5.88-20.62c-11.58-20.37-36.7-22.43-36.7-22.43" transform="translate(-30.59 -26.02)"/><path class="cls-7" d="M304.49,151.52s40,5,67.32,41.21C371.81,192.73,346.4,169.93,304.49,151.52Z" transform="translate(-30.59 -26.02)"/><line class="cls-8" x1="332.31" y1="242.62" x2="329.72" y2="210.24"/><path class="cls-7" d="M360.85,240.31s-18.81-25.09.81-49.54,46.71-13.47,46.71-13.47S373.07,199.62,360.85,240.31Z" transform="translate(-30.59 -26.02)"/><path class="cls-10" d="M360.85,240.31s-4.14-7-2.1-21.34c3.31-23.19,25.93-34.32,25.93-34.32" transform="translate(-30.59 -26.02)"/><path class="cls-6" d="M408.37,177.3s-43,12.3-47.52,63C360.85,240.31,376.13,209.79,408.37,177.3Z" transform="translate(-30.59 -26.02)"/><line class="cls-8" x1="372.68" y1="238.5" x2="382.07" y2="207.39"/><path class="cls-6" d="M411.68,237.39s-8.37-30.22,18.82-45.84S478.91,196,478.91,196,437.9,204,411.68,237.39Z" transform="translate(-30.59 -26.02)"/><path class="cls-14" d="M411.68,237.39s-1.29-8,5.83-20.64c11.54-20.39,36.66-22.51,36.66-22.51" transform="translate(-30.59 -26.02)"/><path class="cls-7" d="M478.91,196s-40,5.07-67.23,41.36C411.68,237.39,437,214.53,478.91,196Z" transform="translate(-30.59 -26.02)"/><path class="cls-7" d="M410.94,187.34s-18.81-25.09.81-49.54,46.72-13.47,46.72-13.47S423.16,146.65,410.94,187.34Z" transform="translate(-30.59 -26.02)"/><path class="cls-10" d="M410.94,187.34s-4.14-7-2.09-21.34c3.31-23.19,25.92-34.32,25.92-34.32" transform="translate(-30.59 -26.02)"/><path class="cls-6" d="M458.47,124.33s-49.19,16-47.53,63C410.94,187.34,426.22,156.82,458.47,124.33Z" transform="translate(-30.59 -26.02)"/><path class="cls-7" d="M389,143.26s4.41-31-24.55-43S317,110.89,317,110.89,358.68,113.47,389,143.26Z" transform="translate(-30.59 -26.02)"/><path class="cls-10" d="M389,143.26s-.88-7.78-8.44-19.71c-12.53-19.8-39.24-17.61-39.24-17.61" transform="translate(-30.59 -26.02)"/><path class="cls-6" d="M317,110.89s57-32.17,72,32.37C389,143.26,360.89,123.86,317,110.89Z" transform="translate(-30.59 -26.02)"/><line class="cls-8" x1="354.66" y1="242.05" x2="360.94" y2="180.87"/><path class="cls-7" d="M391,211s18.81-25.09-.81-49.54-46.72-13.48-46.72-13.48S378.78,170.25,391,211Z" transform="translate(-30.59 -26.02)"/><path class="cls-10" d="M391,211s4.14-7,2.09-21.34c-3.31-23.2-25.92-34.32-25.92-34.32" transform="translate(-30.59 -26.02)"/><path class="cls-6" d="M343.47,147.93s35.38,19.3,47.53,63C391,211,375.72,180.42,343.47,147.93Z" transform="translate(-30.59 -26.02)"/><path class="cls-5" d="M416.3,339.32c0,2.27-12.95,4.1-28.92,4.1s-28.91-1.83-28.91-4.1,12.95-4.11,28.91-4.11S416.3,337.05,416.3,339.32Z" transform="translate(-30.59 -26.02)"/><path class="cls-9" d="M406.88,338l-.5.2a53.14,53.14,0,0,1-38.78-.2h0l-14.26-77.52L357,261a216.76,216.76,0,0,0,60.36,0l3.82-.53Z" transform="translate(-30.59 -26.02)"/><path class="cls-10" d="M354.74,268.08s31.14,7.38,65-.27" transform="translate(-30.59 -26.02)"/><rect class="cls-6" x="286.52" y="317.84" width="138.96" height="8.46"/><circle class="cls-12" cx="356.06" cy="383.42" r="3.9"/><line class="cls-10" x1="357.73" y1="381.74" x2="354.27" y2="385.2"/><line class="cls-10" x1="357.73" y1="385.2" x2="354.27" y2="381.74"/><line class="cls-11" x1="375.27" y1="298.43" x2="374.36" y2="303.62"/><line class="cls-11" x1="383.48" y1="252.98" x2="376.16" y2="293.18"/><ellipse class="cls-5" cx="222.55" cy="447.62" rx="56.34" ry="5.94"/><polygon class="cls-15" points="183.61 437.32 184.06 424.88 193.63 427.94 193.87 433.88 193.09 441.5 183.61 437.32"/><path class="cls-6" d="M214.24,462s-3.46,8.06-2.26,13.1c0,0,14.52.84,25.68,2.64s17.28-4.32,9.72-7.2-22.92-10.68-22.92-10.68S223.46,467.41,214.24,462Z" transform="translate(-30.59 -26.02)"/><polygon class="cls-15" points="230.47 435.52 230.92 423.08 240.49 426.14 240.72 432.08 239.94 439.7 230.47 435.52"/><path class="cls-9" d="M267.12,284.59c-.17-10.38.08-14.89-1.66-25.31,0,0-.45,16-40.56,1l-4.43-1.2a60.32,60.32,0,0,0-7.83,37.7s3.83,5.19,9.36,11.4c6.79,7.63-2.68,9.26-2.68,9.26Z" transform="translate(-30.59 -26.02)"/><path class="cls-10" d="M265,357.25s-3.09,5.12-6.07,5.52" transform="translate(-30.59 -26.02)"/><path class="cls-10" d="M265,357.25" transform="translate(-30.59 -26.02)"/><path class="cls-15" d="M246.82,291.33a109.53,109.53,0,0,1,2.73-12.57l17.27-5.66c.16,2.35,10.49,43.22,11.62,60.34.36,5.37,1.67,10.82,1.34,16.22a23.53,23.53,0,0,1-3.06,11.12c-2.27,4.53-2.55,12-3.12,17.16-.72,6.51-.59,14.7-.84,21.12l-23.24-1.39c-1.61-14.32-1.66-24.35,2.36-38.09,1.23-4.21-2.43-9.66-3.48-13.83a113.59,113.59,0,0,1-2.57-13.7c-1-7.52-2.39-17.1-.79-24.6" transform="translate(-30.59 -26.02)"/><path class="cls-15" d="M249.52,397.67c.74,6.58.91,9.4,3,15.67a203.85,203.85,0,0,1,8.76,43.26s6.33,1.38,10-.36c0,0,.76-29.61,1.29-50.55q.07-3.29.21-6.63" transform="translate(-30.59 -26.02)"/><path class="cls-10" d="M277.82,358.4s-2.29,5.52-5.17,6.35" transform="translate(-30.59 -26.02)"/><path class="cls-10" d="M245.59,360.32s-3.09,5.12-6.07,5.51" transform="translate(-30.59 -26.02)"/><path class="cls-15" d="M210.84,390.3c.55-14.4,2.25-15.82,8.28-28.8,1.85-4,0-8.54-.4-12.82-.45-4.63-1.45-11.92-1.33-16.57.18-7.57-1.16-33,1.55-40.15l10.6-14.61,24.92,4.5-.21,2.6-4.32,51.28c-.45,5.37,0,11-1.1,16.24-1.05,4.9-3.74,9.41-5.45,14.09s-3.25,9.67-4.58,14.65c-1.69,6.33-3.08,12.75-4.29,19.06-.42,2.19-.82,4.37-1.2,6.52-3.65,20.63-7.61,29.43-9,50.34l-10-.58s1.6-23-2.25-46A98,98,0,0,1,210.84,390.3Z" transform="translate(-30.59 -26.02)"/><path class="cls-10" d="M245.59,360.32" transform="translate(-30.59 -26.02)"/><path class="cls-10" d="M245.59,360.32s-3.09,5.12-6.07,5.51" transform="translate(-30.59 -26.02)"/><path class="cls-15" d="M255,191.63s.9-7-2.71-8.23a7,7,0,0,1-4.48-5c-1-5.36-1.71-10.89-.2-15.09l-7.83-17.79a229.17,229.17,0,0,0-7.16,29.37c-.82,4.85-4.95,6.28-6.62,7.26-3.61,2.11,6.1,24.6,24.12,13.56l.23-.15C254,193.33,251.93,196.89,255,191.63Z" transform="translate(-30.59 -26.02)"/><path class="cls-16" d="M248.28,180.24l0-.41a5.19,5.19,0,0,1-.47-1.39c-.37-2-.7-4.09-.89-6.09l-8-5.79S240.45,178,248.28,180.24Z" transform="translate(-30.59 -26.02)"/><path class="cls-4" d="M263.94,208.68c-.78-1.78-4-8.9-4.05-8.91s-1.91-14.07-7.41-16.31c0,0,5.3,6.9-1.72,8.17-10.43.3-22.08-11-22.08-11-5.68,1.48-10.27,10.48-10.83,12.25-6.25,19.65,1.89,25.91,4.29,38.1,0,0,1.64,18.23-1.7,28.25-.24.72,25.14,18.87,39.79,9.33,4.13-2.69,5.23-9.31,5.23-9.31-2.68-12.64-2.36-19,.08-27.36C270.07,216.49,267.27,216.33,263.94,208.68Z" transform="translate(-30.59 -26.02)"/><g class="cls-17"><path class="cls-18" d="M217.32,180.42s29.52,31,44.64,14.4" transform="translate(-30.59 -26.02)"/><path class="cls-18" d="M213.11,192.77s37.16,31.93,52.51,11.34" transform="translate(-30.59 -26.02)"/><path class="cls-18" d="M208.38,205.06s43.77,36,61,11.82" transform="translate(-30.59 -26.02)"/><path class="cls-18" d="M208.38,217.3s43.77,36,61,11.82" transform="translate(-30.59 -26.02)"/><path class="cls-18" d="M208.38,230.62s43.77,36,61,11.82" transform="translate(-30.59 -26.02)"/><path class="cls-18" d="M208.38,243.94s43.77,36,61,11.82" transform="translate(-30.59 -26.02)"/><path class="cls-19" d="M267.88,220.67c.24-5-1.64-6.84-3.79-11.66l-18.93-13.23Z" transform="translate(-30.59 -26.02)"/></g><path class="cls-15" d="M262.73,153.18s-2,25.36-13.06,22.8C236,172.81,234,152.33,235,141.34c.47-5.25,5.55-6.29,10.75-7.15C253.8,132.87,264.05,138.78,262.73,153.18Z" transform="translate(-30.59 -26.02)"/><path class="cls-6" d="M263.62,140.74c-2.44-5.4-11.57-11.29-19.71-11.26s-13.79,5.37-15,12.86c-2,12.17,6.91,11.89,6.91,11.89s19.42,3.81,25.5-10.8c2.93,4.88.36,9,1,12.45C262.32,155.88,266.06,146.14,263.62,140.74Z" transform="translate(-30.59 -26.02)"/><path class="cls-15" d="M262.2,154.15a56.16,56.16,0,0,0,1.14,8c.67,2.13-.25,3.63-4,3.17" transform="translate(-30.59 -26.02)"/><path class="cls-10" d="M251.39,163.22s2.29,3.81,5.49,3" transform="translate(-30.59 -26.02)"/><path class="cls-15" d="M233,159.7c1.36,2.48,4,3.64,5.89,2.6s2.33-3.89,1-6.37-4-3.64-5.89-2.6S231.59,157.23,233,159.7Z" transform="translate(-30.59 -26.02)"/><path class="cls-10" d="M235,156.2s1.42,0,1.76,3.17" transform="translate(-30.59 -26.02)"/><path class="cls-10" d="M234.89,158.58s.21-.67,1.34-1" transform="translate(-30.59 -26.02)"/><path class="cls-10" d="M260,137.9c0,1.34-.38,9.87-7.4,15.57a20.24,20.24,0,0,1-11,4.34" transform="translate(-30.59 -26.02)"/><path class="cls-15" d="M218.53,197.18c-1.41,2.7,2.15,9,5.2,11,8.31,5.34,47.42,29.3,54.6,30.09,8.15.88,26.89-11.73,36.15-17.46l-1.18-6.67s-27.22,7.68-32.5,11.68C280.8,225.82,227,181,218.53,197.18Z" transform="translate(-30.59 -26.02)"/><path class="cls-4" d="M233.3,186.62c8.68,6.45,19.89,12.26,30.64,25.95,0,0-6.63,10.8-14.07,13.15L222.7,209.34a12.61,12.61,0,0,1-5.53-14.54h0C219.28,188,227.59,182.38,233.3,186.62Z" transform="translate(-30.59 -26.02)"/><path class="cls-6" d="M257.71,156.75c0,.55.34,1,.69.95s.6-.48.56-1-.33-1-.68-1S257.68,156.21,257.71,156.75Z" transform="translate(-30.59 -26.02)"/><path class="cls-6" d="M239.3,130.25c1.94-3.61,2.67-9.62-.73-13-3.86-3.78-10.78-1.94-14.54.44-6.74,4.26-9.83,14.36-6.48,18.34C221.43,140.67,235,138.3,239.3,130.25Z" transform="translate(-30.59 -26.02)"/><path class="cls-10" d="M237,131.1a8.9,8.9,0,0,0,6.48-6.72" transform="translate(-30.59 -26.02)"/><path class="cls-10" d="M233.4,135.66s-9.12.72-8.16,12.24" transform="translate(-30.59 -26.02)"/><path class="cls-10" d="M234.6,132.9s-10.62,5.58-7,21.78" transform="translate(-30.59 -26.02)"/><path class="cls-20" d="M232.08,133s-13,2.16-8.28-7.38" transform="translate(-30.59 -26.02)"/><path class="cls-20" d="M226.33,126.35s-3.39,6.53,6.58,6.76" transform="translate(-30.59 -26.02)"/><path class="cls-20" d="M235.08,132.66a13.87,13.87,0,0,1,11-.48" transform="translate(-30.59 -26.02)"/><path class="cls-20" d="M233.64,133.38s6.48-1.8,11,1.8" transform="translate(-30.59 -26.02)"/><path class="cls-21" d="M227.82,118.93s13-6.32,10.66,10.09" transform="translate(-30.59 -26.02)"/><g class="cls-22"><path class="cls-18" d="M241.08,184.14S213.24,189.9,222.84,217" transform="translate(-30.59 -26.02)"/><path class="cls-18" d="M248.76,191.82s-27.84,5.76-18.24,32.88" transform="translate(-30.59 -26.02)"/><path class="cls-18" d="M256.44,199.5s-27.84,5.76-18.24,32.88" transform="translate(-30.59 -26.02)"/><path class="cls-18" d="M264.12,207.18s-27.84,5.76-18.24,32.88" transform="translate(-30.59 -26.02)"/></g><path class="cls-10" d="M263.94,212.57" transform="translate(-30.59 -26.02)"/><path class="cls-10" d="M242.88,192.84" transform="translate(-30.59 -26.02)"/><path class="cls-19" d="M251.6,225a13.4,13.4,0,0,1-1.73.71l-28-16.74c6.61,6.6,24.72,19.19,42.69,26.7.22-1,.48-2,.77-3C261.14,230.43,256.39,227.78,251.6,225Z" transform="translate(-30.59 -26.02)"/><path class="cls-15" d="M322.48,211.69s2.17-3.6,3.46-5.26a14,14,0,0,0-5.7,1.86c-2.55,1.61-6.14,5.82-6.14,5.82Z" transform="translate(-30.59 -26.02)"/><path class="cls-4" d="M328.88,238.17l21.88-10.8a1.24,1.24,0,0,0,.13-2.07l-25.34-20,1.61,31.79A1.24,1.24,0,0,0,328.88,238.17Z" transform="translate(-30.59 -26.02)"/><rect class="cls-12" x="323.55" y="202.75" width="5.9" height="11.74" transform="translate(-89.21 140.05) rotate(-26.27)"/><path class="cls-9" d="M328.83,222.54l.48,10.5a.88.88,0,0,0,1.22.79l15.56-7.68a.88.88,0,0,0,.09-1.47l-6.73-5.56" transform="translate(-30.59 -26.02)"/><rect class="cls-9" x="331.97" y="210.84" width="0.75" height="18.32" transform="translate(-93.65 143.84) rotate(-26.28)"/><line class="cls-10" x1="292.97" y1="181.06" x2="295.62" y2="186.03"/><line class="cls-10" x1="294.05" y1="180.5" x2="296.7" y2="185.47"/><line class="cls-10" x1="295.14" y1="179.94" x2="297.78" y2="184.91"/><line class="cls-10" x1="296.22" y1="179.38" x2="298.87" y2="184.35"/><path class="cls-4" d="M321.34,197.64h18.85a0,0,0,0,1,0,0v5.92a0,0,0,0,1,0,0H320.11a0,0,0,0,1,0,0v-4.69A1.23,1.23,0,0,1,321.34,197.64Z" transform="translate(-86.66 165.93) rotate(-30)"/><line class="cls-10" x1="305.39" y1="167.8" x2="308.36" y2="172.93"/><rect class="cls-4" x="338.37" y="193.76" width="1.5" height="2.85" transform="translate(-82.76 169.67) rotate(-30)"/><line class="cls-10" x1="307.43" y1="168.11" x2="308.86" y2="170.61"/><line class="cls-10" x1="309.16" y1="168.8" x2="308.06" y2="169.4"/><path class="cls-4" d="M335.28,200.57a16.38,16.38,0,0,1-1.41,5.14c-1.29,2.94-2,3.06-2,3.06l-2.32-4.29Z" transform="translate(-30.59 -26.02)"/><polygon class="cls-15" points="281.82 188.39 292.4 184.39 294.52 195.67 282.33 195.05 281.82 188.39"/><path class="cls-15" d="M325.11,221.69s3.4-2.5,4.37-4.25,7.71-12.3,6.89-12.7c-1.53-.72-5.07,3.59-7.56,5.26-1,.69-1.39,1.9-5.82.41Z" transform="translate(-30.59 -26.02)"/><line class="cls-10" x1="303.59" y1="183.71" x2="297.29" y2="187.58"/><line class="cls-10" x1="300.81" y1="188.05" x2="296.92" y2="190.49"/><line class="cls-10" x1="298.55" y1="191.86" x2="296.07" y2="193.34"/><path class="cls-10" d="M323.48,210.14a7.62,7.62,0,0,1-2.21-.38" transform="translate(-30.59 -26.02)"/><line class="cls-10" x1="304.54" y1="175.01" x2="298.78" y2="178.16"/><path class="cls-12" d="M254.67,157.4a1.6,1.6,0,1,1-2.4.76A1.81,1.81,0,0,1,254.67,157.4Z" transform="translate(-30.59 -26.02)"/><path class="cls-10" d="M280.8,225.82s.78.86,4.38,1" transform="translate(-30.59 -26.02)"/><path class="cls-6" d="M261.1,460.24s-3.46,8.06-2.26,13.1c0,0,14.52.84,25.68,2.64s17.28-4.32,9.72-7.2-22.92-10.68-22.92-10.68S270.32,465.61,261.1,460.24Z" transform="translate(-30.59 -26.02)"/><path class="cls-10" d="M259.08,152.7a2.94,2.94,0,0,0-3.18,1.8" transform="translate(-30.59 -26.02)"/><path class="cls-16" d="M249,373.59c3-9.65,6.93-18.89,5.42-27.09-2.16-11.76,3.15-58.53,3.15-58.53l-5.13,5.49L249.3,348c1.16,4.12,3.78,7.48,2.58,11.58A82.4,82.4,0,0,0,249,373.59Z" transform="translate(-30.59 -26.02)"/><path class="cls-11" d="M277.62,461.17s-2.09.15-2.76,3.66" transform="translate(-30.59 -26.02)"/><path class="cls-11" d="M281.06,462.66s-2.09.15-2.77,3.66" transform="translate(-30.59 -26.02)"/><path class="cls-11" d="M274.49,459.6s-2.09.15-2.77,3.66" transform="translate(-30.59 -26.02)"/><path class="cls-11" d="M230.89,463.24s-2.09.15-2.76,3.66" transform="translate(-30.59 -26.02)"/><path class="cls-11" d="M234.33,464.73s-2.09.15-2.77,3.66" transform="translate(-30.59 -26.02)"/><path class="cls-11" d="M227.76,461.67s-2.09.15-2.77,3.66" transform="translate(-30.59 -26.02)"/><path class="cls-11" d="M258.6,471.06s19.36.6,26.84,2.88c0,0,2-6,6.49-6.12" transform="translate(-30.59 -26.02)"/><path class="cls-11" d="M211.8,473s19.36.6,26.84,2.88c0,0,2-6,6.49-6.12" transform="translate(-30.59 -26.02)"/><line class="cls-23" x1="319.35" y1="168.27" x2="315.18" y2="169.04"/><line class="cls-23" x1="313.53" y1="169.31" x2="311.38" y2="169.74"/><line class="cls-23" x1="309.86" y1="166.96" x2="312.32" y2="163.5"/><line class="cls-23" x1="313.31" y1="162.16" x2="314.57" y2="160.35"/><line class="cls-23" x1="310.59" y1="168.13" x2="315" y2="165.44"/><line class="cls-23" x1="316.75" y1="164.42" x2="319.02" y2="162.99"/><path class="cls-21" d="M259.2,143s-5.07,8.19-16.92,2.76c-6.42-2.94-8.58-10.92-8.58-10.92" transform="translate(-30.59 -26.02)"/><path class="cls-24" d="M238.62,130s1.44-12.36,5.11-9.94c2.07,1.35-5.16,9.67-4.67,9.67s6.64-.69,8.2-2.37" transform="translate(-30.59 -26.02)"/><path class="cls-24" d="M238.78,129.91s-4.6-8-6-4.27,6,4.27,6,4.27-2.92,6.89-5.08,6.29" transform="translate(-30.59 -26.02)"/><path class="cls-24" d="M230.22,137.4s3.08-7,9.12-7.68" transform="translate(-30.59 -26.02)"/><path class="cls-10" d="M252.26,191.33c.25.36,6,12.25,6,12.25" transform="translate(-30.59 -26.02)"/><path class="cls-10" d="M256,192.88c.19.46.08.94-.23,1.07s-.73-.14-.92-.59-.09-.94.23-1.07S255.83,192.42,256,192.88Z" transform="translate(-30.59 -26.02)"/><path class="cls-10" d="M257.77,196.59c.19.46.09.94-.23,1.07s-.73-.13-.92-.59-.08-.94.23-1.07S257.58,196.13,257.77,196.59Z" transform="translate(-30.59 -26.02)"/><path class="cls-10" d="M259.23,200.22c.15.47,0,.94-.31,1.05s-.72-.19-.87-.66,0-.94.31-1.05S259.07,199.75,259.23,200.22Z" transform="translate(-30.59 -26.02)"/><path class="cls-9" d="M220.44,259.26s-14,32.28-5.88,67.32c0,0,14.88,8.16,38.4-1l-1.44-49.92-23.94-5.64Z" transform="translate(-30.59 -26.02)"/><path class="cls-9" d="M265.74,262.32s9.36,38.52,13.5,56.88c0,0-18.54,0-27.72,3.6L250.8,274l11.34-2.52Z" transform="translate(-30.59 -26.02)"/><path class="cls-25" d="M251,294.42l1.8,28c.33-.1,1.32-.51,1.67-.61,1.05-16.3,3-33.86,3-33.86Z" transform="translate(-30.59 -26.02)"/><path class="cls-10" d="M261.08,283.31c-.08.87-7.25,8.33-7.32,9.19-1.15,13.65.25,18.37-.77,29.94" transform="translate(-30.59 -26.02)"/><path class="cls-10" d="M216.28,268.12s4,3.26,5.72,3.74c0,0,.54,13.32-9.54,18.36" transform="translate(-30.59 -26.02)"/><path class="cls-10" d="M214,323.4s15,8.13,38.88-1" transform="translate(-30.59 -26.02)"/><path class="cls-10" d="M253.29,319.23s13.85-4.62,25.14-2.68" transform="translate(-30.59 -26.02)"/><path class="cls-10" d="M231,266.28s-3.42,1.62-2.52,4.5" transform="translate(-30.59 -26.02)"/><path class="cls-10" d="M244,271.32s-1.62,1.44.18,3.6" transform="translate(-30.59 -26.02)"/><path class="cls-10" d="M261.42,268.08s2.52,1.08.9,4" transform="translate(-30.59 -26.02)"/><path class="cls-7" d="M84.19,389.64s5-11.76,1.77-22.8,10.94-38.71,5.28-47.52-1.47-24.56-1.47-24.56-10.33,20.84-9.32,30.15-4,11.79-4.53,25.68S84.19,389.64,84.19,389.64Z" transform="translate(-30.59 -26.02)"/><path class="cls-10" d="M85.88,310.27a28.91,28.91,0,0,0-1.39,15.24c1,6-6.07,29.48-4.65,36.48S86,385.06,84.7,394" transform="translate(-30.59 -26.02)"/><path class="cls-6" d="M48.92,409.52s-7-14.31-5.41-29.89,6.68-37.21,8.59-50.57.63-43.25.63-43.25,13.36,42.61,13.36,61.06-7,22.26-7.63,38.8a154.77,154.77,0,0,1-5.09,32.12Z" transform="translate(-30.59 -26.02)"/><path class="cls-14" d="M55.38,430.94s-7.63-36.05-4.66-46.22,5.93-28,7.21-36.47-2.12-41.56-2.12-41.56" transform="translate(-30.59 -26.02)"/><path class="cls-6" d="M76.09,421.51s-4.17-10.81-2-22,7.18-26.54,9.4-36.1,3.18-31.29,3.18-31.29,7,31.71,5.84,45.08-6.47,15.69-8,27.63a112.23,112.23,0,0,1-5.71,22.95Z" transform="translate(-30.59 -26.02)"/><path class="cls-14" d="M79.43,437.43s-3.27-26.59-.48-33.78,6.06-19.9,7.52-26,1.07-30.24,1.07-30.24" transform="translate(-30.59 -26.02)"/><path class="cls-7" d="M57.21,426.6s-7.05-14.78-3.43-29.08-16-49-9.16-60.56.65-31.51.65-31.51,14.26,26.16,13.45,38.12,5.78,14.88,7.09,32.64S57.21,426.6,57.21,426.6Z" transform="translate(-30.59 -26.02)"/><path class="cls-10" d="M51,325.11S55,333,53.58,344.54c-.92,7.74,9.25,37.42,7.8,46.46s-6.72,29.84-4.61,41.16" transform="translate(-30.59 -26.02)"/><path class="cls-7" d="M65.32,414.51s-7-14.31-5.41-29.89,6.68-37.21,8.59-50.57.64-43.26.64-43.26,13.35,42.62,13.35,61.07-7,22.26-7.63,38.8a154.77,154.77,0,0,1-5.09,32.12Z" transform="translate(-30.59 -26.02)"/><path class="cls-10" d="M71.79,435.93s-7.64-36.05-4.67-46.22,5.94-28,7.21-36.47-2.12-41.56-2.12-41.56" transform="translate(-30.59 -26.02)"/><path class="cls-5" d="M92.35,444.09c0,2.9-11.83,5.25-26.42,5.25S39.5,447,39.5,444.09s11.83-5.25,26.43-5.25S92.35,441.19,92.35,444.09Z" transform="translate(-30.59 -26.02)"/><path class="cls-26" d="M9.78,387.22H60.3a0,0,0,0,1,0,0v10.64A22.44,22.44,0,0,1,37.86,420.3H32.22A22.44,22.44,0,0,1,9.78,397.86V387.22a0,0,0,0,1,0,0Z"/><line class="cls-10" x1="10.38" y1="393.23" x2="59.7" y2="393.23"/><path class="cls-27" d="M34.8,170.52v20.37a1,1,0,0,0,2,.34l7.09-20.71Z" transform="translate(-30.59 -26.02)"/><path class="cls-27" d="M170.88,170.52v20.37a1,1,0,0,1-2,.34l-7.09-20.71Z" transform="translate(-30.59 -26.02)"/><rect class="cls-28" y="140.61" width="143.05" height="5.33"/><path class="cls-7" d="M86.92,126.22c-4.16,1.44-8.53-.25-9.75-3.79s1.15-7.56,5.32-9,8.53.25,9.75,3.78S91.08,124.77,86.92,126.22Z" transform="translate(-30.59 -26.02)"/><path class="cls-27" d="M67.51,133.92s9.06-13.38,24.65-17.1" transform="translate(-30.59 -26.02)"/><ellipse class="cls-29" cx="66.11" cy="113.82" rx="7.98" ry="6.77" transform="translate(-83.95 143.05) rotate(-84.67)"/><path class="cls-14" d="M71.82,135.31s-8.42-13.79-5.36-29.52" transform="translate(-30.59 -26.02)"/><path class="cls-29" d="M90.11,99.67c-2.33,3.75-6.79,5.18-10,3.2s-3.86-6.6-1.54-10.34,6.79-5.18,10-3.2S92.43,95.93,90.11,99.67Z" transform="translate(-30.59 -26.02)"/><path class="cls-14" d="M79.87,117.88s-1.37-16.1,8.39-28.8" transform="translate(-30.59 -26.02)"/><path class="cls-7" d="M88.06,102.78c-2.76-3.12-7.87-3.12-11.42,0s-4.17,8.2-1.41,11.33,7.87,3.12,11.42,0S90.82,105.91,88.06,102.78ZM83.9,113.45a1.75,1.75,0,1,1,1.51-2A1.76,1.76,0,0,1,83.9,113.45Z" transform="translate(-30.59 -26.02)"/><path class="cls-27" d="M69.59,129.53s-4.88-14.91,18.68-26.25" transform="translate(-30.59 -26.02)"/><path class="cls-7" d="M58.18,103.73c-4.17-.2-7.73,3.47-8,8.19s3,8.71,7.14,8.91,7.72-3.47,7.95-8.19S62.34,103.93,58.18,103.73Zm4.74,10.42a1.75,1.75,0,1,1-.34-2.45A1.75,1.75,0,0,1,62.92,114.15Z" transform="translate(-30.59 -26.02)"/><path class="cls-27" d="M64.49,135.61s-14.1-6.88-5.81-31.69" transform="translate(-30.59 -26.02)"/><ellipse class="cls-7" cx="68.99" cy="97.84" rx="7.98" ry="6.77" transform="translate(-75.23 109.51) rotate(-73.16)"/><path class="cls-27" d="M70.31,120s-5.51-15.2.63-30" transform="translate(-30.59 -26.02)"/><path class="cls-12" d="M52.1,166.63h31c1.58,0,2.74-1.11,2.35-2.25l-9.35-27h0v-1.57a1.28,1.28,0,0,1,.09-.48l1.74-4.67c.43-1.15-.73-2.29-2.33-2.29H59.29c-1.61,0-2.77,1.14-2.33,2.29l1.72,4.53a1.41,1.41,0,0,1,.09.49v2.43a1.42,1.42,0,0,1-.08.45l-8.93,25.85C49.36,165.52,50.52,166.63,52.1,166.63Z" transform="translate(-30.59 -26.02)"/><line class="cls-27" x1="28.17" y1="109.63" x2="45.48" y2="109.63"/><rect class="cls-28" x="73.48" y="44.42" width="65.09" height="96.19"/><rect class="cls-4" x="80.3" y="51.62" width="51.45" height="81.79"/><line class="cls-27" x1="73.48" y1="140.61" x2="138.57" y2="140.61"/><line class="cls-27" x1="116.89" y1="65.66" x2="87.37" y2="108.14"/><line class="cls-27" x1="116.53" y1="84.38" x2="101.41" y2="107.42"/><rect class="cls-10" x="415.28" y="254.35" width="13.44" height="24.92"/><line class="cls-10" x1="415.28" y1="266.9" x2="428.65" y2="266.9"/><line class="cls-10" x1="420.72" y1="257.69" x2="419.11" y2="260.7"/><line class="cls-10" x1="423.56" y1="257.69" x2="425.17" y2="260.7"/><line class="cls-10" x1="422.17" y1="261.18" x2="422.17" y2="264.15"/><line class="cls-10" x1="427.25" y1="272.83" x2="423.89" y2="272.83"/><path class="cls-11" d="M87.24,423.24s-1,10.56-9.12,16.08" transform="translate(-30.59 -26.02)"/></g></g></svg>